PathFileType	4	(X/Y/Z)	21_1_43_p0_0-506.trc
DataRate	CameraRate	NumFrames	NumMarkers	Units	OrigDataRate	OrigDataStartFrame	OrigNumFrames
56.0	56.0	5	27	m	56.0	126	507
Frame#	Time	RHip			RKnee			RAnkle			RBigToe			RSmallToe			RHeel			LHip			LKnee			LAnkle			LBigToe			LSmallToe			LHeel			Neck			Head			Nose			RShoulder			RElbow			RWrist			RThumb			RIndex			RPinky			LShoulder			LElbow			LWrist			LThumb			LIndex			LPinky			
		X1	Y1	Z1	X2	Y2	Z2	X3	Y3	Z3	X4	Y4	Z4	X5	Y5	Z5	X6	Y6	Z6	X7	Y7	Z7	X8	Y8	Z8	X9	Y9	Z9	X10	Y10	Z10	X11	Y11	Z11	X12	Y12	Z12	X13	Y13	Z13	X14	Y14	Z14	X15	Y15	Z15	X16	Y16	Z16	X17	Y17	Z17	X18	Y18	Z18	X19	Y19	Z19	X20	Y20	Z20	X21	Y21	Z21	X22	Y22	Z22	X23	Y23	Z23	X24	Y24	Z24	X25	Y25	Z25	X26	Y26	Z26	X27	Y27	Z27	
126	2.25	0.32326665352421846	0.49501828954471	1.0214090070308914	0.31174930240770043	0.5838102073165906	1.5236848952163424	0.27792259954190485	0.7000730951661224	1.984831047556979	0.27912828695612324	0.4741863019254361	2.0070487871395706	0.3412854328543584	0.48513362974281615	1.990998252288078	0.26206935990369	0.7347446144967349	2.019446560953947	0.10170509054879269	0.5319029223096212	1.0422281505883353	0.10329880153846151	0.5670984147780187	1.5235108616846627	0.11409794462163303	0.6321320560927209	1.9511957819385133	0.10966502335183087	0.427691157204182	1.97987925481874	0.05274375995952072	0.48407239548129816	1.9943998036923818	0.13457814851234917	0.6879209374406138	2.0107331163251567	0.20634507103943833	0.4534843949884791	0.5431986946219959	0.19652862031208349	0.33439219823797317	0.287589094097546	0.19665140496820613	0.31234972115774595	0.4521799181321637	0.36302259286245847	0.4532888466775739	0.595664212340783	0.4281353102805602	0.518914046343521	0.8831460831504832	0.4583312432916128	0.4669218376660404	1.1077328876591628	0.40919286583246967	0.4475690738834112	1.2316635029440872	0.4374585974200355	0.46194368286612647	1.2666430059120544	0.4562573172067955	0.5083520660120836	1.2638155362419092	0.06666561527489077	0.46668344643104653	0.6018060127296608	0.004936637271470463	0.5166912876371996	0.8693014103155036	-0.012439278113129407	0.5024583760924901	1.1325483835365464	0.03528580751998545	0.4466096599486898	1.229275108864621	0.022065654417139053	0.43976658552056686	1.257995902490659	-0.023642882720955303	0.4814852301574123	1.2627470186743828
127	2.267857142857143	0.32324252692980315	0.4948853899906442	1.0214080396212128	0.3076754549850181	0.5839840790042704	1.5236405483838662	0.2778971530151934	0.7000289584554418	1.9849116940823675	0.27905001625496156	0.4741768711968706	2.0071418048632585	0.33987666091310714	0.5131414657642995	2.007517428177166	0.26186365015350943	0.7344429532520826	2.0198242594346714	0.10160786239680131	0.5319621515635441	1.042214424044323	0.10322493784630966	0.5677398057310747	1.5236522729852149	0.11369787692276849	0.6338000278539544	1.9474038977929282	0.1148989867739052	0.4135695919438137	1.9713564580344967	0.05280392592680585	0.48386661146119614	1.9942010208006535	0.13464866058122177	0.6878443506431957	2.010659379477131	0.20233426805778493	0.45135837714605725	0.543092452122532	0.20064126775290525	0.3241756349598611	0.28438733894307067	0.19654935680019767	0.3123955167688067	0.45213850282548224	0.3594538147475363	0.45040394657151755	0.6022751979940499	0.4280666225139175	0.5185621398119815	0.8830995639779673	0.462017947797369	0.4782141507331582	1.1107529292365006	0.4011765694083047	0.4615853180636707	1.2408238900640953	0.4351052791723062	0.45324932083842256	1.2669028465949264	0.4599231449020527	0.49424376592484687	1.2588307417810758	0.0643606989540153	0.45561191345075497	0.6006835099651864	0.005335153814981646	0.5168222058104333	0.8656292277597517	-0.012711419348140233	0.5003705948736058	1.127987369468008	0.03509610541515923	0.4470517993379314	1.2248897380768904	0.011089604329315713	0.4531877043427742	1.2615603674945197	-0.0239143460194195	0.48259569780959277	1.2584929531834241
128	2.2857142857142856	0.32725582024871613	0.48108274082438707	1.0216450012945364	0.3075706570493845	0.5831234702464039	1.523888847161882	0.28323130487217896	0.6826285167993112	1.9753095070734414	0.283469450965989	0.45740671780437275	1.9977811816076336	0.34205769979272826	0.4870243890354165	1.9924946281353193	0.26360527107526877	0.7017245521567569	2.0024032347453273	0.10099500930602674	0.5320032796929314	1.0457614630976024	0.10091456339570071	0.5549049612387678	1.5184741138412028	0.11239444085052983	0.634100722901269	1.952547487027942	0.11537483240433778	0.4155580042890387	1.9765601903703438	0.052855358153878415	0.4837108187560489	1.9941140469955145	0.13467821054086432	0.6874501578072829	2.01046471734476	0.20689116990959677	0.43872535150363895	0.5422758814606803	0.19280658406539442	0.33336693665000566	0.28416857131881673	0.19621595340992862	0.3123995326327497	0.45220852802533545	0.35615849941798333	0.440003462663889	0.6012404098528283	0.4271762117572807	0.5170435764089846	0.8828610443832409	0.46199685559567844	0.4783270992932028	1.1106986921702486	0.4055983865433766	0.46277500918882963	1.2407640727100135	0.43517658509967755	0.45352721848023625	1.2667746026653108	0.455466656907811	0.5084776037595391	1.2679205572232954	0.06649806210907143	0.4651990766464485	0.5981917942617874	0.0052803879426639245	0.5170595262562903	0.8655208888773053	-0.012779787972642464	0.5004779713526235	1.1279714225407478	0.03094633592580401	0.4443469555112941	1.2237953104624397	0.005803155060531986	0.4654914002030133	1.26291322493829	-0.024374487365133656	0.48215200973702416	1.2546420945759855
129	2.3035714285714284	0.31953916835700963	0.48281500160018564	1.022440845758871	0.312062868146537	0.5869802056098363	1.5250154584621345	0.2841025131549591	0.6855541039003383	1.981393783623688	0.2838309414322452	0.4596465027049335	1.998212281123065	0.3414774525582384	0.48472226732404144	1.9909005189348408	0.2677606071672174	0.7191435711189279	2.016084567405615	0.10654452368846738	0.518993869619912	1.0423821015517056	0.10092389292776958	0.5548381916809038	1.518481325780367	0.11235171744144984	0.6341081981038076	1.9527551074937615	0.1147906684900113	0.41427724976100416	1.9711132920932815	0.052833360913843594	0.48388690715209076	1.9934100706099136	0.133514552372281	0.68850380331533	2.0148612896113427	0.20451806194149413	0.42737999034376145	0.5378291502218449	0.1925355301066306	0.33331561285873024	0.28418787562993864	0.19368136415805962	0.30298413956610115	0.4450973394131597	0.35626112877457944	0.4400901460590642	0.5976025451799662	0.4280227717717423	0.5182544425621354	0.8830202541012276	0.46184237879593165	0.47808527309095833	1.1107806561289102	0.40958311844396617	0.44940710940955964	1.2362149740798356	0.4415709840376519	0.44908497563285976	1.26473125674187	0.4591717567822178	0.49704125203538685	1.2628633517744459	0.06427222686771324	0.4543107040519796	0.597042543746973	0.005248564785162001	0.5171557945325387	0.8654295696690156	-0.012403721621789623	0.4996959791253659	1.1321127260548103	0.030467311369850984	0.44468005268280913	1.227996542269103	0.004349299783844725	0.451737635460964	1.263266918767832	-0.02269017569544354	0.49368762791804177	1.2583941571289312
130	2.3214285714285716	0.31852954108983067	0.49344529797979114	1.0250398924737663	0.3121589950153225	0.5872166578254286	1.5250625354914933	0.284127982661589	0.6847145962680375	1.9807778857243734	0.2760607708760233	0.46161096879756536	1.9999870768733459	0.3368500637387787	0.5000339187450039	2.0001496484970667	0.2656813665705934	0.7037435704431716	2.0027380501203416	0.1010358707436617	0.532052680018965	1.0458364610509954	0.10098399780489732	0.5549980153391222	1.518317198297679	0.11236371198365953	0.6341773457418336	1.9530914273161477	0.11301779543373969	0.4017367846618838	1.9641384715217973	0.0527908052230611	0.48377454924545005	1.9939447867323468	0.1335526455681704	0.688622673343591	2.015302877692403	0.2043972419861858	0.4268999921833878	0.5377307898118715	0.192395261111226	0.33188584942665433	0.2810462651602851	0.19384014119940643	0.3030230377355774	0.4418764084708089	0.3561449817339445	0.43990299763944934	0.5976580305922234	0.42791622567354254	0.5180774996270453	0.8829880983578082	0.45816334479259485	0.4671076151033068	1.1077345529518585	0.4057417237678676	0.46267888269391333	1.2406806944120086	0.43877124925523736	0.43870923528987255	1.2612130405843758	0.4589719572851664	0.4953154283113698	1.258440810086556	0.06412814290479052	0.4539798091027737	0.5971298935994398	0.0016758915351731455	0.5149532994228211	0.8653031507955151	-0.012477585882552863	0.499887245724659	1.1321443597719987	0.025234473856541782	0.45710533792687935	1.2281698117487838	-0.0013476226613397177	0.46486124084042557	1.2677376857311207	-0.022800670374362206	0.4944263936724024	1.258511364329684
